<svg width="558" height="493" viewBox="0 0 558 493" fill="none" xmlns="http://www.w3.org/2000/svg">
<path d="M187.644 350.27C187.644 350.27 130.117 353.642 143.516 374.171C156.916 394.7 192.124 362.128 192.124 362.128L187.644 350.27Z" fill="#FFB8B8"/>
<path d="M293.656 154.734L281.947 158.053C281.947 158.053 275.116 181.282 270.238 202.299C265.359 223.316 255.601 286.366 255.601 286.366L179.952 346.467L188.975 369.348L289.753 324.322L312.196 224.422L293.656 154.734Z" fill="#575A89"/>
<path opacity="0.2" d="M282.639 195.966L287.003 299.569L277.896 330.371L304.573 308.194L282.639 195.966Z" fill="white"/>
<path d="M266.822 379.836C266.822 379.836 254.137 418.552 252.186 445.099C250.234 471.647 248.283 492.664 248.283 492.664H307.805L319.514 472.753V492.664H388.794C388.794 492.664 408.309 420.764 400.503 411.915C392.697 403.066 318.538 365.456 318.538 365.456L266.822 379.836Z" fill="#2F2E41"/>
<path d="M153.406 491.656H497.83V493H153.406V491.656Z" fill="#3F3D56"/>
<path d="M341.469 112.7C320.991 112.7 304.39 93.8811 304.39 70.6664C304.39 47.4518 320.991 28.6326 341.469 28.6326C361.947 28.6326 378.548 47.4518 378.548 70.6664C378.548 93.8811 361.947 112.7 341.469 112.7Z" fill="#FFB8B8"/>
<path d="M369.766 88.3649L372.694 137.036L335.614 193.449L317.075 140.354C317.075 140.354 333.663 128.186 323.905 102.745L369.766 88.3649Z" fill="#FFB8B8"/>
<path d="M261.458 389.238C261.458 399.197 285.852 414.68 285.852 414.68V420.211L295.61 425.742L317.076 377.074L322.927 430.164C322.927 430.164 365.864 437.912 379.522 430.164C393.187 422.422 400.016 425.742 419.531 418C439.047 410.258 411.724 306.276 411.724 306.276L431.239 145.885L388.604 121.719L386.358 120.442L380.495 119.219L371.508 117.337L341.47 140.354L339.051 154.735L337.563 163.586L329.762 153.627L323.869 131.658L281.946 158.055L293.654 264.241C293.654 264.241 261.458 379.285 261.458 389.238Z" fill="#575A89"/>
<path d="M404.894 423.529C404.894 423.529 360.009 464.457 381.476 472.2C402.943 479.943 414.652 430.166 414.652 430.166L404.894 423.529Z" fill="#FFB8B8"/>
<path d="M421.482 148.097L431.24 145.885C431.24 145.885 445.877 154.734 446.852 172.433C447.828 190.131 460.513 314.02 460.513 314.02L419.531 439.016L386.354 424.636L418.555 307.383L394.161 205.617L421.482 148.097Z" fill="#575A89"/>
<path d="M337.178 181.854C335.213 181.854 333.621 180.048 333.621 177.822C333.621 175.595 335.213 173.789 337.178 173.789C339.142 173.789 340.735 175.595 340.735 177.822C340.735 180.048 339.142 181.854 337.178 181.854Z" fill="#2F2E41"/>
<path d="M337.178 208.063C335.213 208.063 333.621 206.257 333.621 204.03C333.621 201.804 335.213 199.998 337.178 199.998C339.142 199.998 340.735 201.804 340.735 204.03C340.735 206.257 339.142 208.063 337.178 208.063Z" fill="#2F2E41"/>
<path d="M317.022 380.772C315.058 380.772 313.465 378.967 313.465 376.74C313.465 374.513 315.058 372.708 317.022 372.708C318.987 372.708 320.579 374.513 320.579 376.74C320.579 378.967 318.987 380.772 317.022 380.772Z" fill="#2F2E41"/>
<path d="M372.775 27.6047L379.629 24.4939C379.629 24.4939 365.297 6.60717 345.357 8.16258L350.965 1.16338C350.965 1.16338 337.257 -5.05803 324.794 11.2733C318.243 19.8583 310.663 29.9495 305.938 41.3172H298.598L301.661 48.9644L290.938 56.6115L301.944 55.2379C301.288 59.4256 301.188 63.7008 301.646 67.9222C302.118 72.1449 304.019 75.9944 306.947 78.6584C306.947 78.6584 315.448 58.7119 315.448 55.6012V63.378C315.448 63.378 322.302 56.3789 322.302 51.7128L326.041 57.1566H350.965L347.227 50.1575L361.558 52.4905L355.95 43.9359L378.14 79.2607C378.14 79.2607 390.845 39.2699 372.775 27.6047Z" fill="#2F2E41"/>
<path d="M153.562 304.549C125.948 304.549 103.562 282.163 103.562 254.549C103.562 226.934 125.948 204.549 153.562 204.549C181.176 204.549 203.562 226.934 203.562 254.549C203.562 282.163 181.176 304.549 153.562 304.549Z" fill="#3F3D56"/>
<path d="M149.954 289V280.512C143.906 280.428 137.65 278.915 134 276.814L136.502 271.183C140.839 273.489 146.099 274.754 151.518 274.796C158.922 274.796 163.928 271.351 163.928 266.56C163.928 261.938 159.861 259.08 152.144 256.559C141.508 253.197 134.938 249.331 134.938 242.02C134.938 235.044 141.091 229.749 150.684 228.488V220H157.15V228.152C161.97 228.199 166.673 229.219 170.706 231.094L168.099 236.641C164.231 234.762 159.647 233.765 154.96 233.783C146.931 233.783 143.906 237.649 143.906 241.011C143.906 245.381 147.765 247.566 156.837 250.592C167.577 254.122 173 258.492 173 265.972C173 272.611 167.265 278.831 156.524 280.259V289H149.954Z" fill="white"/>
<path opacity="0.2" d="M409.794 339.284L386.085 423.242L405.055 335.879L409.794 339.284Z" fill="white"/>
<path d="M530.675 175.266H545.725C546.381 175.265 547.01 174.969 547.474 174.443C547.937 173.918 548.198 173.205 548.199 172.461V147.937C548.198 147.193 547.937 146.48 547.474 145.955C547.01 145.429 546.381 145.133 545.725 145.132H530.675C530.02 145.133 529.391 145.429 528.927 145.955C528.463 146.48 528.202 147.193 528.201 147.937V172.461C528.202 173.205 528.463 173.918 528.927 174.443C529.391 174.969 530.02 175.265 530.675 175.266ZM545.725 146.476C546.067 146.477 546.394 146.631 546.636 146.905C546.877 147.178 547.013 147.55 547.013 147.937V172.461C547.013 172.848 546.877 173.219 546.636 173.493C546.394 173.767 546.067 173.921 545.725 173.922H530.675C530.334 173.921 530.006 173.767 529.765 173.493C529.523 173.219 529.387 172.848 529.387 172.461V147.937C529.387 147.55 529.523 147.178 529.765 146.905C530.006 146.631 530.334 146.477 530.675 146.476H545.725Z" fill="#3F3D56"/>
<path d="M503.187 175.266H516.778C517.627 175.264 518.441 174.882 519.042 174.201C519.642 173.52 519.98 172.597 519.981 171.634V122.107C519.98 121.144 519.642 120.221 519.042 119.54C518.441 118.859 517.627 118.476 516.778 118.475H503.187C502.338 118.476 501.523 118.859 500.923 119.54C500.322 120.221 499.984 121.144 499.983 122.107V171.634C499.984 172.597 500.322 173.52 500.923 174.201C501.523 174.882 502.338 175.264 503.187 175.266ZM516.778 119.819C517.312 119.82 517.825 120.061 518.204 120.49C518.582 120.919 518.795 121.5 518.795 122.107V171.634C518.795 172.241 518.582 172.822 518.204 173.251C517.825 173.68 517.312 173.921 516.778 173.922H503.187C502.652 173.921 502.139 173.68 501.761 173.251C501.382 172.822 501.17 172.241 501.169 171.634V122.107C501.17 121.5 501.382 120.919 501.761 120.49C502.139 120.061 502.652 119.82 503.187 119.819L516.778 119.819Z" fill="#3F3D56"/>
<path d="M475.494 175.266H488.035C489.023 175.264 489.971 174.819 490.67 174.026C491.369 173.234 491.762 172.16 491.763 171.039V98.1773C491.762 97.0568 491.369 95.9825 490.67 95.1902C489.971 94.3979 489.023 93.9522 488.035 93.9509H475.494C474.505 93.9522 473.558 94.3979 472.859 95.1902C472.16 95.9825 471.767 97.0568 471.766 98.1773V171.039C471.767 172.16 472.16 173.234 472.859 174.026C473.558 174.819 474.505 175.264 475.494 175.266ZM488.035 95.295C488.709 95.2958 489.355 95.5998 489.832 96.1401C490.309 96.6805 490.577 97.4131 490.578 98.1773V171.039C490.577 171.803 490.309 172.536 489.832 173.076C489.355 173.617 488.709 173.921 488.035 173.922H475.494C474.82 173.921 474.173 173.617 473.697 173.076C473.22 172.536 472.952 171.803 472.951 171.039V98.1773C472.952 97.4131 473.22 96.6805 473.697 96.1401C474.173 95.5998 474.82 95.2958 475.494 95.295H488.035Z" fill="#3F3D56"/>
<path d="M532.557 149.803H543.844V170.595H532.557V149.803Z" fill="white"/>
<path d="M504.339 123.412H515.626V170.595H504.339V123.412Z" fill="white"/>
<path d="M476.121 98.8881H487.408V170.595H476.121V98.8881Z" fill="white"/>
<path d="M129.397 97.9831H208.241C208.319 97.9831 208.396 97.9657 208.468 97.932C208.54 97.8982 208.605 97.8487 208.66 97.7863C208.715 97.7239 208.759 97.6498 208.789 97.5682C208.819 97.4867 208.834 97.3993 208.834 97.311V6.58804C208.834 6.40981 208.772 6.23887 208.66 6.11285C208.549 5.98682 208.398 5.91602 208.241 5.91602C208.084 5.91602 207.933 5.98682 207.822 6.11285C207.711 6.23887 207.648 6.40981 207.648 6.58804V96.639H129.397C129.24 96.639 129.089 96.7098 128.978 96.8359C128.867 96.9619 128.804 97.1328 128.804 97.311C128.804 97.4893 128.867 97.6602 128.978 97.7862C129.089 97.9123 129.24 97.9831 129.397 97.9831Z" fill="#3F3D56"/>
<path d="M463.743 184.674H557.407C557.485 184.674 557.562 184.657 557.634 184.623C557.706 184.589 557.771 184.54 557.826 184.477C557.881 184.415 557.925 184.341 557.955 184.259C557.985 184.178 558 184.09 558 184.002V78.4944C558 78.3162 557.938 78.1452 557.826 78.0192C557.715 77.8932 557.564 77.8224 557.407 77.8224C557.25 77.8224 557.099 77.8932 556.988 78.0192C556.877 78.1452 556.814 78.3162 556.814 78.4944V183.33H463.743C463.586 183.33 463.435 183.401 463.324 183.527C463.213 183.653 463.15 183.824 463.15 184.002C463.15 184.18 463.213 184.351 463.324 184.477C463.435 184.603 463.586 184.674 463.743 184.674Z" fill="#3F3D56"/>
<path d="M181.032 89.5608H196.082C196.738 89.5601 197.367 89.2643 197.83 88.7386C198.294 88.2128 198.555 87.4998 198.556 86.7562V62.232C198.555 61.4884 198.294 60.7755 197.83 60.2497C197.367 59.7239 196.738 59.4282 196.082 59.4274H181.032C180.376 59.4283 179.747 59.7241 179.284 60.2499C178.82 60.7756 178.559 61.4885 178.558 62.232V86.7563C178.559 87.4998 178.82 88.2126 179.284 88.7384C179.747 89.2641 180.376 89.5599 181.032 89.5608ZM196.082 60.7715C196.423 60.7719 196.751 60.9259 196.992 61.1997C197.234 61.4735 197.37 61.8448 197.37 62.232V86.7563C197.37 87.1435 197.234 87.5147 196.992 87.7885C196.751 88.0623 196.423 88.2163 196.082 88.2168H181.032C180.691 88.2163 180.363 88.0623 180.122 87.7885C179.88 87.5147 179.744 87.1434 179.744 86.7563V62.232C179.744 61.8448 179.88 61.4736 180.122 61.1998C180.363 60.926 180.691 60.772 181.032 60.7715H196.082Z" fill="#3F3D56"/>
<path d="M150.212 89.5608H164.064C164.879 89.5597 165.66 89.1923 166.236 88.5392C166.812 87.8861 167.136 87.0006 167.137 86.077V41.6566C167.136 40.733 166.812 39.8476 166.236 39.1945C165.66 38.5414 164.879 38.1741 164.064 38.1731H150.212C149.397 38.1741 148.616 38.5414 148.04 39.1945C147.464 39.8476 147.14 40.733 147.139 41.6566V86.077C147.14 87.0006 147.464 87.8861 148.04 88.5392C148.616 89.1923 149.397 89.5597 150.212 89.5608ZM164.064 39.5171C164.564 39.5177 165.044 39.7433 165.398 40.1444C165.752 40.5455 165.951 41.0894 165.951 41.6566V86.077C165.951 86.6443 165.752 87.1882 165.398 87.5893C165.044 87.9905 164.564 88.2162 164.064 88.2168H150.212C149.712 88.2162 149.232 87.9905 148.878 87.5893C148.524 87.1882 148.325 86.6443 148.325 86.077V41.6566C148.325 41.0894 148.524 40.5455 148.878 40.1444C149.232 39.7434 149.712 39.5177 150.212 39.5171H164.064Z" fill="#3F3D56"/>
<path d="M183.184 64.3307H194.471V85.1231H183.184V64.3307Z" fill="white"/>
<path d="M151.495 43.7521H162.782V83.9818H151.495V43.7521Z" fill="white"/>
<path d="M188.678 52.2855C185.732 52.2855 183.343 49.5777 183.343 46.2373C183.343 42.897 185.732 40.1891 188.678 40.1891C191.625 40.1891 194.014 42.897 194.014 46.2373C194.014 49.5777 191.625 52.2855 188.678 52.2855Z" fill="white"/>
<path d="M157.259 29.4368C154.313 29.4368 151.924 26.7289 151.924 23.3886C151.924 20.0483 154.313 17.3404 157.259 17.3404C160.206 17.3404 162.595 20.0483 162.595 23.3886C162.595 26.7289 160.206 29.4368 157.259 29.4368Z" fill="white"/>
</svg>
