<svg width="522" height="388" viewBox="0 0 522 388" fill="none" xmlns="http://www.w3.org/2000/svg">
<path d="M266.21 387.178C281.887 387.178 294.596 373.754 294.596 357.194C294.596 340.635 281.887 327.211 266.21 327.211C250.532 327.211 237.823 340.635 237.823 357.194C237.823 373.754 250.532 387.178 266.21 387.178Z" fill="#BE173F"/>
<path d="M435.791 385.493C451.672 380.455 468.555 375.202 481.149 363.226C492.404 352.525 500.002 336.183 495.339 320.134C490.686 304.118 476.75 293.438 462.361 288.126C454.2 285.114 445.662 283.442 437.127 282.13C427.849 280.702 418.53 279.533 409.216 278.408C371.5 273.851 333.642 271.068 295.643 270.057C276.893 269.558 258.146 269.57 239.394 269.858C222.646 270.115 205.008 270.108 189.471 262.59C177.39 256.743 166.424 246.106 163.058 232.128C159.172 215.993 166.34 199.561 176.621 187.875C182.041 181.716 188.375 176.531 194.91 171.764C201.999 166.593 209.335 161.787 216.83 157.302C231.591 148.471 247.024 140.956 262.968 134.835C270.833 131.814 278.815 129.208 286.866 126.803C293.665 124.773 300.484 122.74 307.055 119.974C319.757 114.627 331.838 105.569 335.068 90.7195C338.129 76.6459 332.968 61.3679 323.92 50.9129C313.452 38.8171 297.669 33.5148 282.537 32.6569C265.55 31.6937 248.954 36.1845 232.987 41.8838C215.957 47.9627 199.294 54.9522 181.905 59.876C164.661 64.7538 147.083 68.2051 129.331 70.1985C120.641 71.1759 111.688 72.2796 102.947 71.5313C95.6201 70.9042 88.3311 68.6283 82.9317 63.1362C78.3019 58.427 75.5439 51.9549 76.4921 45.125C76.6644 43.8845 78.4485 44.4119 78.2773 45.6448C77.1231 53.9588 82.4735 61.6199 89.0666 65.5443C96.6866 70.0798 105.959 70.086 114.443 69.5673C132.838 68.3937 151.108 65.604 169.064 61.2269C186.709 56.9702 203.723 50.885 220.718 44.3846C236.858 38.2109 253.36 32.1854 270.603 30.8482C285.566 29.6879 301.305 31.9903 314.339 40.2494C325.795 47.508 334.219 59.613 336.903 73.5037C339.526 87.0775 335.893 100.74 326.166 110.212C316.094 120.019 302.284 124.212 289.414 128.074C273.09 132.972 257.117 138.698 241.655 146.131C225.983 153.645 210.953 162.571 196.731 172.809C183.003 182.718 169.455 195.186 165.113 212.864C163.091 221.098 163.464 229.832 166.848 237.61C169.857 244.525 174.813 250.343 180.586 254.83C194.36 265.535 211.72 267.733 228.358 267.952C247.044 268.198 265.731 267.531 284.424 267.856C322.518 268.516 360.535 270.965 398.474 275.203C407.98 276.266 417.475 277.441 426.958 278.728C435.487 279.885 444.045 281.035 452.43 283.091C467.341 286.747 481.849 293.776 491.117 307.129C495.23 312.917 497.778 319.776 498.489 326.974C499.138 334.485 497.397 342.011 494.182 348.693C487.065 363.483 473.735 372.89 459.579 379.071C451.997 382.381 444.133 384.889 436.283 387.379C435.14 387.741 434.651 385.855 435.791 385.493L435.791 385.493Z" fill="#F2F2F2"/>
<path d="M77.6877 60.9446C85.8672 60.9446 92.4979 53.9407 92.4979 45.301C92.4979 36.6613 85.8672 29.6575 77.6877 29.6575C69.5082 29.6575 62.8774 36.6613 62.8774 45.301C62.8774 53.9407 69.5082 60.9446 77.6877 60.9446Z" fill="#F2F2F2"/>
<path d="M180.434 90.6023C188.613 90.6023 195.244 83.5984 195.244 74.9587C195.244 66.319 188.613 59.3152 180.434 59.3152C172.254 59.3152 165.624 66.319 165.624 74.9587C165.624 83.5984 172.254 90.6023 180.434 90.6023Z" fill="#F2F2F2"/>
<path d="M267.444 31.2871C275.623 31.2871 282.254 24.2832 282.254 15.6435C282.254 7.00385 275.623 0 267.444 0C259.264 0 252.634 7.00385 252.634 15.6435C252.634 24.2832 259.264 31.2871 267.444 31.2871Z" fill="#F2F2F2"/>
<path d="M321.748 97.7722C329.927 97.7722 336.558 90.7683 336.558 82.1286C336.558 73.489 329.927 66.4851 321.748 66.4851C313.569 66.4851 306.938 73.489 306.938 82.1286C306.938 90.7683 313.569 97.7722 321.748 97.7722Z" fill="#F2F2F2"/>
<path d="M248.314 174.686C256.493 174.686 263.124 167.682 263.124 159.043C263.124 150.403 256.493 143.399 248.314 143.399C240.134 143.399 233.504 150.403 233.504 159.043C233.504 167.682 240.134 174.686 248.314 174.686Z" fill="#F2F2F2"/>
<path d="M155.133 211.84C163.312 211.84 169.943 204.836 169.943 196.196C169.943 187.556 163.312 180.552 155.133 180.552C146.954 180.552 140.323 187.556 140.323 196.196C140.323 204.836 146.954 211.84 155.133 211.84Z" fill="#F2F2F2"/>
<path d="M253.868 269.851C262.047 269.851 268.678 262.847 268.678 254.208C268.678 245.568 262.047 238.564 253.868 238.564C245.688 238.564 239.058 245.568 239.058 254.208C239.058 262.847 245.688 269.851 253.868 269.851Z" fill="#F2F2F2"/>
<path d="M360.008 302.442C368.187 302.442 374.818 295.438 374.818 286.798C374.818 278.159 368.187 271.155 360.008 271.155C351.829 271.155 345.198 278.159 345.198 286.798C345.198 295.438 351.829 302.442 360.008 302.442Z" fill="#F2F2F2"/>
<path d="M484.044 295.272C492.223 295.272 498.854 288.268 498.854 279.628C498.854 270.989 492.223 263.985 484.044 263.985C475.864 263.985 469.233 270.989 469.233 279.628C469.233 288.268 475.864 295.272 484.044 295.272Z" fill="#F2F2F2"/>
<path d="M263.169 44.3255C218.805 44.6565 182.48 82.7368 181.85 129.593C181.844 130.026 181.841 133.068 181.842 137.046C181.842 142.88 184.036 148.474 187.941 152.599C191.846 156.724 197.142 159.042 202.665 159.043H202.665C205.403 159.042 208.113 158.472 210.642 157.364C213.171 156.256 215.469 154.633 217.403 152.587C219.338 150.541 220.872 148.113 221.918 145.441C222.964 142.768 223.501 139.904 223.499 137.013C223.497 134.306 223.495 132.433 223.495 132.318C223.494 125.077 225.277 117.959 228.67 111.666C232.062 105.374 236.947 100.122 242.844 96.4281C248.741 92.7343 255.447 90.7256 262.302 90.5995C269.157 90.4734 275.925 92.2343 281.94 95.709C287.955 99.1836 293.01 104.252 296.608 110.417C300.206 116.581 302.223 123.628 302.46 130.866C302.697 138.103 301.147 145.281 297.961 151.693C294.776 158.106 290.065 163.532 284.292 167.438L284.299 167.447C284.299 167.447 254.661 187.601 245.625 215.248L245.633 215.25C244.044 220.914 243.239 226.79 243.242 232.698C243.242 235.126 243.378 256.372 243.639 273.617C243.73 279.567 246.033 285.241 250.049 289.414C254.065 293.587 259.474 295.925 265.108 295.924H265.108C267.939 295.923 270.741 295.332 273.355 294.183C275.969 293.035 278.342 291.352 280.337 289.231C282.333 287.11 283.911 284.593 284.983 281.825C286.054 279.057 286.596 276.093 286.579 273.103C286.488 257.31 286.439 238.921 286.439 237.586C286.439 220.61 301.944 203.695 314.679 192.665C329.345 179.963 339.899 162.653 344.138 143.128C345.076 139.108 345.593 134.991 345.68 130.852C345.68 119.436 343.541 108.133 339.387 97.5943C335.234 87.0555 329.146 77.4891 321.477 69.4462C313.807 61.4033 304.706 55.043 294.699 50.7316C284.692 46.4202 273.976 44.243 263.169 44.3255Z" fill="#BE173F"/>
<path d="M520.509 388H0.734836C0.540333 387.999 0.353994 387.917 0.216658 387.772C0.0793231 387.626 0.00219727 387.429 0.00219727 387.224C0.00219727 387.018 0.0793231 386.821 0.216658 386.676C0.353994 386.53 0.540333 386.448 0.734836 386.448H520.509C520.704 386.448 520.891 386.53 521.029 386.675C521.166 386.821 521.244 387.018 521.244 387.224C521.244 387.43 521.166 387.627 521.029 387.773C520.891 387.918 520.704 388 520.509 388Z" fill="#3F3D56"/>
<path d="M387.812 177.943C398.036 177.943 406.324 169.188 406.324 158.388C406.324 147.589 398.036 138.834 387.812 138.834C377.587 138.834 369.299 147.589 369.299 158.388C369.299 169.188 377.587 177.943 387.812 177.943Z" fill="#2F2E41"/>
<path d="M353.602 379.44H346.037L342.438 348.617H353.604L353.602 379.44Z" fill="#A0616A"/>
<path d="M340.633 377.156H355.223V386.86H331.446C331.446 385.586 331.684 384.324 332.146 383.147C332.607 381.969 333.284 380.9 334.137 379.999C334.99 379.098 336.003 378.383 337.117 377.895C338.232 377.407 339.426 377.156 340.633 377.156Z" fill="#2F2E41"/>
<path d="M412.226 379.44H404.661L401.062 348.617H412.228L412.226 379.44Z" fill="#A0616A"/>
<path d="M399.257 377.156H413.847V386.86H390.07C390.07 385.586 390.308 384.324 390.769 383.147C391.231 381.969 391.908 380.9 392.761 379.999C393.614 379.098 394.627 378.383 395.741 377.895C396.856 377.407 398.05 377.156 399.257 377.156Z" fill="#2F2E41"/>
<path d="M384.998 178.057C393.369 178.057 400.155 170.889 400.155 162.048C400.155 153.206 393.369 146.038 384.998 146.038C376.628 146.038 369.842 153.206 369.842 162.048C369.842 170.889 376.628 178.057 384.998 178.057Z" fill="#A0616A"/>
<path d="M394.032 229.703L400.814 213.245C402.461 209.384 402.933 205.078 402.165 200.922C401.397 196.766 399.426 192.963 396.525 190.04C395.929 189.418 395.296 188.837 394.63 188.3C391.284 185.535 387.16 184.028 382.912 184.018C380.055 184.029 377.235 184.692 374.643 185.96C374.421 186.064 374.205 186.175 373.983 186.286C373.557 186.501 373.137 186.736 372.73 186.977C370.073 188.588 367.812 190.836 366.129 193.54C364.447 196.244 363.389 199.327 363.041 202.542L360.049 229.032C359.296 231.111 332.44 306.2 341.832 363.527C341.932 364.139 342.215 364.702 342.639 365.132C343.063 365.563 343.606 365.838 344.189 365.919L353.711 367.288C354.406 367.389 355.112 367.207 355.686 366.78C356.259 366.353 356.658 365.713 356.803 364.987L372.779 284.547C372.879 284.047 373.134 283.597 373.504 283.268C373.875 282.94 374.339 282.752 374.822 282.735C375.305 282.718 375.78 282.872 376.17 283.173C376.561 283.475 376.844 283.905 376.975 284.397L399.549 368.989C399.71 369.604 400.057 370.146 400.537 370.532C401.018 370.918 401.605 371.127 402.209 371.127C402.389 371.126 402.568 371.109 402.745 371.075L414.377 368.709C415.054 368.576 415.658 368.18 416.073 367.6C416.487 367.02 416.682 366.297 416.618 365.574C414.908 345.439 405.825 244.584 394.032 229.703Z" fill="#2F2E41"/>
<path d="M326.097 175.371C325.991 176.322 326.085 177.287 326.371 178.196C326.657 179.106 327.128 179.938 327.751 180.634C328.375 181.33 329.135 181.874 329.979 182.226C330.822 182.578 331.729 182.731 332.634 182.673L341.106 204.178L347.515 194.144L338.487 175.261C338.294 173.66 337.553 172.19 336.402 171.129C335.252 170.068 333.773 169.489 332.246 169.502C330.718 169.516 329.249 170.121 328.115 171.202C326.982 172.284 326.264 173.767 326.097 175.371L326.097 175.371Z" fill="#A0616A"/>
<path d="M384.158 251.357C385.059 251.243 385.925 250.922 386.696 250.417C387.466 249.911 388.123 249.233 388.618 248.431C389.114 247.628 389.437 246.721 389.565 245.772C389.693 244.823 389.622 243.857 389.358 242.94L407.183 229.227L396.451 224.982L381.17 238.655C379.741 239.226 378.561 240.33 377.851 241.759C377.142 243.188 376.954 244.842 377.323 246.408C377.691 247.974 378.59 249.342 379.85 250.254C381.11 251.166 382.643 251.559 384.158 251.357Z" fill="#A0616A"/>
<path d="M355.1 218.515C354.417 218.514 353.735 218.443 353.065 218.303C351.443 217.977 349.923 217.235 348.637 216.142C347.351 215.049 346.34 213.638 345.692 212.035L333.823 196.748C333.572 196.425 333.389 196.049 333.287 195.645C333.185 195.241 333.166 194.819 333.231 194.406C333.295 193.994 333.443 193.601 333.663 193.254C333.884 192.907 334.172 192.613 334.508 192.393L342.953 186.872C343.265 186.668 343.611 186.531 343.974 186.47C344.336 186.408 344.706 186.423 345.062 186.513C345.419 186.604 345.755 186.768 346.051 186.996C346.347 187.224 346.598 187.512 346.788 187.843L355.154 202.401L371.174 189.895C372.45 189.188 373.924 188.99 375.326 189.337C376.728 189.683 377.966 190.551 378.813 191.781C379.66 193.012 380.059 194.523 379.938 196.039C379.817 197.555 379.184 198.975 378.154 200.038L362.164 215.445C360.285 217.412 357.746 218.516 355.1 218.515Z" fill="#2F2E41"/>
<path d="M398.389 241.506C398.367 241.506 398.346 241.506 398.324 241.505C397.935 241.495 397.551 241.399 397.199 241.223C396.848 241.046 396.535 240.794 396.281 240.482L388.773 231.23C388.517 230.915 388.328 230.546 388.217 230.148C388.106 229.75 388.077 229.332 388.131 228.921C388.184 228.51 388.32 228.115 388.529 227.764C388.737 227.412 389.014 227.111 389.341 226.881L403.399 216.981L390.664 200.808C389.923 199.504 389.651 197.961 389.898 196.462C390.145 194.964 390.894 193.609 392.009 192.645C393.123 191.682 394.529 191.174 395.969 191.215C397.408 191.256 398.786 191.842 399.85 192.868L415.329 208.845C416.547 210.021 417.477 211.491 418.039 213.13C418.601 214.768 418.778 216.527 418.555 218.254C418.332 219.981 417.716 221.624 416.759 223.044C415.802 224.464 414.533 225.618 413.061 226.405L400.41 240.585C400.15 240.876 399.837 241.107 399.49 241.266C399.142 241.424 398.768 241.506 398.389 241.506Z" fill="#2F2E41"/>
<path d="M381.145 207.417C381.024 207.417 380.904 207.409 380.784 207.392C380.262 207.325 379.768 207.101 379.362 206.747C378.956 206.392 378.655 205.922 378.495 205.392L372.853 187.122C372.712 186.66 372.733 186.16 372.914 185.714C373.095 185.267 373.423 184.905 373.837 184.694L374.02 184.603C374.186 184.52 374.35 184.437 374.518 184.358C377.149 183.07 380.012 182.397 382.912 182.388C386.677 182.395 390.357 183.563 393.502 185.749C393.924 186.046 394.219 186.505 394.323 187.029C394.427 187.552 394.332 188.098 394.059 188.548L383.475 206.061C383.227 206.477 382.883 206.819 382.476 207.056C382.068 207.294 381.61 207.417 381.145 207.417Z" fill="#E6E6E6"/>
<path d="M402.407 149.658C405.753 149.658 408.465 146.794 408.465 143.26C408.465 139.726 405.753 136.861 402.407 136.861C399.062 136.861 396.35 139.726 396.35 143.26C396.35 146.794 399.062 149.658 402.407 149.658Z" fill="#2F2E41"/>
<path d="M381.641 136.227C377.385 136.227 373.304 138.012 370.296 141.19C367.287 144.368 365.596 148.679 365.596 153.174V160.344H373.945L377.938 153.174L379.136 160.344H404.473L397.685 153.174C397.685 148.679 395.995 144.368 392.986 141.19C389.977 138.012 385.896 136.227 381.641 136.227Z" fill="#2F2E41"/>
<path d="M405.521 138.877C406.191 136.664 407.578 134.772 409.438 133.533C411.298 132.293 413.512 131.786 415.691 132.101C419.551 132.783 422.604 136.06 424.422 139.721C426.241 143.382 427.081 147.48 428.304 151.407C429.526 155.334 431.26 159.283 434.347 161.826C437.433 164.368 442.17 165.058 445.201 162.442C444.855 165.168 443.706 167.71 441.917 169.708C440.129 171.706 437.79 173.059 435.233 173.577C432.676 174.095 430.03 173.75 427.668 172.592C425.307 171.433 423.35 169.52 422.074 167.123C420.475 164.117 420.062 160.594 419.588 157.182C419.113 153.771 418.497 150.241 416.587 147.444C414.678 144.647 411.103 142.821 408.069 144.094L405.521 138.877Z" fill="#2F2E41"/>
<path d="M208.545 148.639C203.022 148.638 197.726 146.32 193.821 142.195C189.916 138.07 187.722 132.476 187.721 126.642C187.721 122.664 187.724 119.622 187.729 119.19C187.905 105.562 191.154 92.1757 197.207 80.1401C187.262 94.521 181.793 111.811 181.558 129.619C181.553 130.051 181.55 133.093 181.55 137.072C181.551 142.905 183.745 148.499 187.65 152.624C191.555 156.749 196.851 159.067 202.374 159.068C206.912 159.066 211.325 157.499 214.944 154.606C218.562 151.714 221.188 147.652 222.422 143.039C218.609 146.651 213.666 148.645 208.545 148.639Z" fill="#3F3D56"/>
<path d="M264.581 90.6735C270.965 90.9956 277.18 92.9496 282.692 96.3677C288.205 99.7858 292.849 104.566 296.227 110.298C299.605 116.029 301.615 122.541 302.086 129.275C302.556 136.008 301.472 142.761 298.927 148.954C302.608 144.388 305.314 139.037 306.859 133.266C308.405 127.496 308.754 121.441 307.884 115.514C307.013 109.588 304.943 103.93 301.814 98.9252C298.686 93.9205 294.572 89.6873 289.755 86.5141C284.937 83.3409 279.528 81.3023 273.896 80.5373C268.265 79.7723 262.544 80.2989 257.122 82.0812C251.701 83.8634 246.707 86.8595 242.482 90.865C238.256 94.8706 234.898 99.7915 232.636 105.292C236.545 100.435 241.459 96.5901 246.997 94.0555C252.536 91.5209 258.552 90.3638 264.581 90.6735Z" fill="#3F3D56"/>
<path d="M270.987 285.52C265.353 285.521 259.945 283.183 255.928 279.01C251.912 274.837 249.61 269.163 249.518 263.213C249.257 245.968 249.122 224.722 249.122 222.294C249.118 216.387 249.923 210.51 251.512 204.846L251.505 204.844C252.443 202.001 253.576 199.234 254.895 196.565C250.846 202.265 247.623 208.57 245.334 215.273L245.341 215.275C243.752 220.939 242.947 226.816 242.951 232.723C242.951 235.151 243.086 256.398 243.347 273.642C243.439 279.592 245.741 285.266 249.757 289.439C253.774 293.612 259.182 295.95 264.816 295.949C269.461 295.948 273.981 294.356 277.697 291.412C281.414 288.469 284.126 284.332 285.428 279.622C281.481 283.424 276.329 285.528 270.987 285.52Z" fill="#3F3D56"/>
<path d="M78.0875 379.737L85.6525 379.737L89.252 348.914L78.0857 348.914L78.0875 379.737Z" fill="#FFB8B8"/>
<path d="M100.244 387.156L76.4666 387.158L76.4662 377.454L91.0567 377.453C93.4931 377.453 95.8298 378.476 97.5527 380.295C99.2756 382.115 100.244 384.583 100.244 387.156L100.244 387.156Z" fill="#2F2E41"/>
<path d="M50.9354 379.737L58.5004 379.737L62.0999 348.914L50.9336 348.914L50.9354 379.737Z" fill="#FFB8B8"/>
<path d="M73.0913 387.156L49.3143 387.158L49.3138 377.454L63.9043 377.453C66.3407 377.453 68.6774 378.476 70.4003 380.295C72.1232 382.115 73.0912 384.583 73.0913 387.156L73.0913 387.156Z" fill="#2F2E41"/>
<path d="M57.5466 370.258L50.1569 369.847C49.7758 369.826 49.4026 369.725 49.0587 369.55C48.7148 369.376 48.4071 369.131 48.1535 368.83C47.8999 368.529 47.7054 368.177 47.5812 367.796C47.4571 367.415 47.4058 367.012 47.4303 366.609L56.2625 263.319L96.9358 274.912L100.854 273.783L88.6 365.222C88.4956 365.91 88.1722 366.54 87.6833 367.007C87.1943 367.475 86.569 367.752 85.9106 367.794L77.9446 368.186C77.5463 368.209 77.1477 368.145 76.7741 367.997C76.4004 367.85 76.0599 367.622 75.7739 367.328C75.4879 367.034 75.2627 366.681 75.1125 366.29C74.9623 365.9 74.8905 365.481 74.9014 365.06L76.3448 310.179C76.3516 309.926 76.2681 309.678 76.1108 309.486C75.9536 309.294 75.7339 309.172 75.4952 309.142C75.2565 309.113 75.016 309.179 74.8211 309.327C74.6262 309.476 74.491 309.696 74.4422 309.945L60.5225 367.834C60.3911 368.521 60.0382 369.138 59.5241 369.581C59.0099 370.024 58.3663 370.265 57.7029 370.262C57.6511 370.262 57.599 370.261 57.5466 370.258Z" fill="#2F2E41"/>
<path d="M79.4458 178.806C87.8164 178.806 94.6022 171.638 94.6022 162.796C94.6022 153.955 87.8164 146.787 79.4458 146.787C71.0751 146.787 64.2893 153.955 64.2893 162.796C64.2893 171.638 71.0751 178.806 79.4458 178.806Z" fill="#FFB8B8"/>
<path d="M54.2114 209.831L55.8779 247.81L56.4803 261.628C56.5043 262.229 56.6977 262.809 57.0356 263.294C57.3736 263.779 57.8408 264.146 58.3775 264.349L97.4617 279.304C97.7774 279.428 98.1119 279.49 98.4488 279.487C98.8337 279.489 99.2151 279.409 99.5702 279.252C99.9252 279.094 100.247 278.863 100.515 278.572C100.784 278.281 100.994 277.935 101.134 277.556C101.273 277.177 101.339 276.772 101.327 276.366L99.7243 208.077C99.6191 202.474 97.6666 197.086 94.2033 192.841C90.7401 188.596 85.9831 185.76 80.7526 184.822C80.3746 184.761 79.9899 184.7 79.6053 184.646C76.362 184.221 73.0698 184.552 69.9604 185.615C66.851 186.678 63.9999 188.448 61.6078 190.8C59.1308 193.207 57.1844 196.158 55.9064 199.447C54.6283 202.735 54.0496 206.28 54.2114 209.831L54.2114 209.831Z" fill="#CCCCCC"/>
<path d="M116.132 271.726C115.208 271.423 114.363 270.896 113.666 270.187C112.969 269.478 112.438 268.606 112.116 267.642C111.794 266.678 111.69 265.648 111.812 264.633C111.934 263.619 112.279 262.649 112.819 261.801L99.5652 243.185L111.003 242.437L121.835 260.23C122.995 261.177 123.802 262.525 124.115 264.038C124.427 265.55 124.226 267.131 123.546 268.503C122.865 269.874 121.749 270.949 120.394 271.538C119.038 272.127 117.529 272.194 116.132 271.726H116.132Z" fill="#FFB8B8"/>
<path d="M106.813 258.432C106.462 258.282 106.143 258.059 105.874 257.777C105.604 257.495 105.391 257.16 105.245 256.79L85.2772 206.539C84.8854 205.555 84.681 204.5 84.6756 203.432C84.6703 202.365 84.8642 201.307 85.2461 200.319C85.6281 199.331 86.1907 198.432 86.9017 197.673C87.6128 196.915 88.4583 196.312 89.3901 195.899C90.3219 195.486 91.3216 195.271 92.3321 195.266C93.3426 195.261 94.3441 195.466 95.2793 195.871C96.2145 196.275 97.0652 196.87 97.7827 197.622C98.5001 198.373 99.0703 199.267 99.4607 200.251L119.429 250.503C119.724 251.248 119.727 252.086 119.438 252.834C119.149 253.582 118.59 254.178 117.886 254.491L109.021 258.421C108.672 258.577 108.297 258.658 107.918 258.66C107.539 258.662 107.164 258.585 106.813 258.432L106.813 258.432Z" fill="#CCCCCC"/>
<path d="M74.5728 256.66L93.7517 217.871C94.1215 217.125 94.7564 216.564 95.517 216.312C96.2777 216.06 97.1019 216.137 97.809 216.526L125.647 231.883C126.353 232.273 126.884 232.944 127.123 233.747C127.361 234.551 127.289 235.421 126.92 236.168L107.742 274.957C107.372 275.703 106.737 276.264 105.976 276.516C105.216 276.768 104.391 276.691 103.684 276.302L75.8462 260.945C75.14 260.555 74.6093 259.884 74.3706 259.08C74.1318 258.277 74.2046 257.406 74.5728 256.66Z" fill="#3F3D56"/>
<path d="M87.4349 238.938C87.094 237.981 86.546 237.122 85.8347 236.428C85.1235 235.735 84.2686 235.227 83.3384 234.944C82.4082 234.662 81.4283 234.613 80.4771 234.801C79.5258 234.99 78.6294 235.411 77.8595 236.031L59.4834 223.155L59.4521 235.258L76.9072 245.63C77.8707 246.797 79.1924 247.568 80.6406 247.809C82.0887 248.049 83.5707 247.743 84.8267 246.945C86.0827 246.147 87.0324 244.906 87.5093 243.442C87.9863 241.978 87.9599 240.383 87.4349 238.938Z" fill="#FFB8B8"/>
<path d="M64.2014 241.66L49.1834 229.094C47.5587 228.518 46.0907 227.534 44.9053 226.227C43.72 224.919 42.8527 223.328 42.3779 221.588C41.9031 219.849 41.8351 218.014 42.1795 216.24C42.524 214.467 43.2707 212.809 44.3556 211.407L57.9916 192.531C58.9392 191.308 60.2718 190.486 61.746 190.215C63.2201 189.944 64.7372 190.243 66.02 191.057C67.3028 191.87 68.2656 193.144 68.7324 194.646C69.1992 196.147 69.1387 197.776 68.5621 199.235L57.773 217.876L73.6286 225.82C73.9973 226.005 74.3247 226.27 74.5891 226.598C74.8536 226.926 75.0491 227.31 75.1627 227.724C75.2764 228.138 75.3055 228.573 75.2483 229C75.1911 229.426 75.0488 229.836 74.8308 230.2L68.4304 240.899C68.2141 241.26 67.9283 241.569 67.5917 241.806C67.2551 242.043 66.8751 242.203 66.4763 242.275C66.4604 242.278 66.4445 242.28 66.4286 242.283C66.0367 242.345 65.6369 242.322 65.2539 242.215C64.8708 242.108 64.5126 241.919 64.2014 241.66Z" fill="#CCCCCC"/>
<path d="M67.9933 173.516C67.9282 173.315 67.9076 173.101 67.933 172.891C67.9583 172.68 68.029 172.478 68.1396 172.301C68.2502 172.124 68.3977 171.975 68.5709 171.868C68.7441 171.76 68.9384 171.695 69.1388 171.679C69.5493 171.703 69.951 171.814 70.3197 172.006C70.6884 172.198 71.0164 172.467 71.2839 172.797C71.8324 173.465 72.471 174.044 73.1791 174.516C73.9123 174.906 74.9067 174.85 75.3246 174.106C75.7171 173.407 75.4482 172.471 75.2106 171.66C74.6059 169.594 74.2676 167.452 74.2048 165.291C74.1363 162.879 74.4585 160.362 75.7227 158.481C77.3542 156.053 80.2715 155.132 83.0324 155.198C85.7933 155.265 88.5094 156.166 91.2441 156.735C92.1882 156.931 93.298 157.031 93.9294 156.259C94.6009 155.437 94.3543 154.107 94.0687 152.997C93.3276 150.118 92.5414 147.141 90.8195 144.815C88.9578 142.399 86.2984 140.818 83.3769 140.389C80.5721 140.022 77.7249 140.364 75.0693 141.386C70.7428 142.826 66.9358 145.627 64.1574 149.415C61.2932 153.443 60.0556 158.505 60.7152 163.494C61.3595 167.84 63.5394 171.766 66.8156 174.48L67.9933 173.516Z" fill="#2F2E41"/>
<path d="M259.956 379.864C255.923 378.009 252.354 375.19 249.53 371.628C246.706 368.066 244.704 363.86 243.683 359.341C242.661 354.823 242.648 350.115 243.644 345.59C244.64 341.065 246.618 336.846 249.422 333.267C246.171 335.774 243.462 338.983 241.475 342.68C239.488 346.378 238.268 350.48 237.896 354.713C237.525 358.947 238.01 363.215 239.319 367.236C240.629 371.256 242.733 374.936 245.492 378.032C248.251 381.128 251.602 383.568 255.322 385.191C259.043 386.815 263.047 387.584 267.07 387.447C271.094 387.311 275.043 386.272 278.657 384.4C282.271 382.528 285.467 379.865 288.032 376.589C284.031 379.678 279.334 381.606 274.407 382.181C269.481 382.755 264.499 381.957 259.956 379.864Z" fill="#3F3D56"/>
</svg>
