<svg width="429" height="451" viewBox="0 0 429 451" fill="none" xmlns="http://www.w3.org/2000/svg">
<path fill-rule="evenodd" clip-rule="evenodd" d="M221.099 180.4C219.099 178.4 216.199 177.1 213.099 177.1C209.999 177.1 207.099 178.4 205.099 180.4C203.099 182.4 201.799 185.3 201.799 188.4C201.799 191.5 203.099 194.4 205.099 196.4C207.099 198.4 209.999 199.7 213.099 199.7C216.199 199.7 219.099 198.4 221.099 196.4C223.099 194.4 224.399 191.5 224.399 188.4C224.399 185.3 223.099 182.5 221.099 180.4ZM147.899 217.1C145.899 215.1 142.999 213.8 139.899 213.8C136.799 213.8 133.899 215.1 131.899 217.1C129.899 219.1 128.599 222 128.599 225.1C128.599 228.2 129.899 231.1 131.899 233.1C133.899 235.1 136.799 236.4 139.899 236.4C142.999 236.4 145.899 235.1 147.899 233.1C149.899 231.1 151.199 228.2 151.199 225.1C151.199 222 149.999 219.1 147.899 217.1ZM179.599 266.9C177.599 264.9 174.699 263.6 171.599 263.6C168.499 263.6 165.599 264.9 163.599 266.9C161.599 268.9 160.299 271.8 160.299 274.9C160.299 278 161.599 280.9 163.599 282.9C165.599 284.9 168.499 286.2 171.599 286.2C174.699 286.2 177.599 284.9 179.599 282.9C181.599 280.9 182.899 278 182.899 274.9C182.899 271.8 181.599 269 179.599 266.9ZM278.299 217.1C280.299 215.1 283.199 213.8 286.299 213.8C289.399 213.8 292.299 215.1 294.299 217.1C296.299 219.1 297.599 222 297.599 225.1C297.599 228.2 296.299 231.1 294.299 233.1C292.299 235.1 289.399 236.4 286.299 236.4C283.199 236.4 280.299 235.1 278.299 233.1C276.299 231.1 274.999 228.2 274.999 225.1C274.999 222 276.199 219.1 278.299 217.1ZM249.599 106.6V151.3L281.199 183.6V204.4C277.299 205.3 273.899 207.3 271.099 210.1C267.199 214 264.899 219.3 264.899 225.2C264.899 231.1 267.299 236.4 271.099 240.3C274.999 244.2 280.299 246.5 286.199 246.5C292.099 246.5 297.399 244.1 301.299 240.3C305.199 236.4 307.499 231.1 307.499 225.2C307.499 219.3 305.099 214 301.299 210.1C298.599 207.4 295.099 205.4 291.199 204.4V179.5L259.599 147.2V116.5V101.6V82.7L213.099 36.2L166.599 82.7V101.6V116.5V147.2L134.999 179.5V204.4C131.099 205.3 127.699 207.3 124.899 210.1C120.999 214 118.699 219.3 118.699 225.2C118.699 231.1 121.099 236.4 124.899 240.3C128.799 244.2 134.099 246.5 139.999 246.5C145.899 246.5 151.199 244.1 155.099 240.3C158.999 236.4 161.299 231.1 161.299 225.2C161.299 219.3 158.899 214 155.099 210.1C152.399 207.4 148.899 205.4 144.999 204.4V183.6L176.599 151.3V106.6L213.099 70L249.599 106.6ZM246.599 266.9C248.599 264.9 251.499 263.6 254.599 263.6C257.699 263.6 260.599 264.9 262.599 266.9C264.599 268.9 265.899 271.8 265.899 274.9C265.899 278 264.599 280.9 262.599 282.9C260.599 284.9 257.699 286.2 254.599 286.2C251.499 286.2 248.599 284.9 246.599 282.9C244.599 280.9 243.299 278 243.299 274.9C243.299 271.8 244.599 269 246.599 266.9ZM213.099 416L259.599 369.5V350.8V335.7V295.7C263.499 294.8 266.899 292.8 269.699 290C273.599 286.1 275.899 280.8 275.899 274.9C275.899 269 273.499 263.7 269.699 259.8C265.799 255.9 260.499 253.6 254.599 253.6C248.699 253.6 243.399 256 239.499 259.8C235.599 263.7 233.299 269 233.299 274.9C233.299 280.8 235.699 286.1 239.499 290C242.199 292.7 245.699 294.7 249.599 295.7V345.7L218.099 377.2V209.2C221.999 208.3 225.399 206.3 228.199 203.5C232.099 199.6 234.399 194.3 234.399 188.4C234.399 182.5 231.999 177.2 228.199 173.3C224.299 169.4 218.999 167.1 213.099 167.1C207.199 167.1 201.899 169.5 197.999 173.3C194.099 177.1 191.799 182.5 191.799 188.4C191.799 194.3 194.199 199.6 197.999 203.5C200.699 206.2 204.199 208.2 208.099 209.2V377.2L176.599 345.7V295.7C180.499 294.8 183.899 292.8 186.699 290C190.599 286.1 192.899 280.8 192.899 274.9C192.899 269 190.499 263.7 186.699 259.8C182.799 255.9 177.499 253.6 171.599 253.6C165.699 253.6 160.399 256 156.499 259.8C152.599 263.7 150.299 269 150.299 274.9C150.299 280.8 152.699 286.1 156.499 290C159.199 292.7 162.699 294.7 166.599 295.7V335.7V350.8V369.5L213.099 416ZM402.999 226.1L277.799 100.9V134.7L369.199 226.1L277.799 317.5V351.3L402.999 226.1ZM23.1992 226.1L148.399 100.9V134.7L56.9992 226.1L148.399 317.5V351.3L23.1992 226.1Z" fill="white"/>
</svg>
