<svg width="476" height="384" viewBox="0 0 476 384" fill="none" xmlns="http://www.w3.org/2000/svg">
<path d="M117.49 350.389L118.459 370.466L118.459 370.467C118.622 373.86 117.408 377.179 115.085 379.692C112.762 382.205 109.519 383.707 106.07 383.868L105.647 383.888L104.062 351.016L117.49 350.389Z" fill="#2F2E41"/>
<path d="M407.633 316.459C397.914 335.12 385.585 353.168 369.987 369.502C369.64 369.871 369.291 370.231 368.938 370.596L331.98 353.384C332.206 353.014 332.454 352.599 332.721 352.146C348.596 325.423 444.428 162.409 441.4 125.489C441.753 128.534 453.112 229.235 407.633 316.459Z" fill="#E6E6E6"/>
<path d="M377.117 372.823C376.599 373.113 376.069 373.396 375.535 373.669L347.811 360.757C348.198 360.486 348.65 360.166 349.169 359.806C357.663 353.807 382.919 335.806 407.633 316.459C434.192 295.67 460.128 273.331 463.98 262.669C463.197 265.114 438.888 339.437 377.117 372.823Z" fill="#E6E6E6"/>
<path d="M45.8681 373.041C68.2415 373.041 86.3787 353.223 86.3787 328.776C86.3787 304.329 68.2415 284.511 45.8681 284.511C23.4946 284.511 5.35742 304.329 5.35742 328.776C5.35742 353.223 23.4946 373.041 45.8681 373.041Z" fill="#7879F1"/>
<path d="M63.2573 311.154H28.9796C27.4649 311.156 26.0128 311.749 24.9418 312.802C23.8708 313.856 23.2683 315.285 23.2666 316.775V340.863C23.2683 342.353 23.8707 343.782 24.9418 344.835C26.0128 345.889 27.4649 346.482 28.9796 346.483H63.2573C64.772 346.482 66.2241 345.889 67.2951 344.835C68.3662 343.782 68.9686 342.353 68.9703 340.863V316.775C68.9686 315.285 68.3661 313.856 67.2951 312.802C66.2241 311.749 64.7719 311.156 63.2573 311.154ZM63.2573 314.366C63.4619 314.367 63.6656 314.393 63.8636 314.444L46.1224 328.367L28.4848 314.416C28.6476 314.383 28.8134 314.366 28.9795 314.366H63.2573ZM63.2573 343.272H28.9796C28.3304 343.271 27.7081 343.017 27.2491 342.565C26.7901 342.114 26.5319 341.502 26.5312 340.863V316.991L45.0957 331.676C45.3848 331.905 45.7444 332.03 46.1153 332.031C46.4862 332.031 46.8464 331.908 47.1363 331.68L65.7057 317.107V340.863C65.705 341.502 65.4468 342.114 64.9878 342.565C64.5288 343.017 63.9064 343.271 63.2573 343.272Z" fill="white"/>
<path d="M211.242 280.218L220.815 280.296C221.784 280.303 222.743 280.103 223.625 279.709C224.507 279.315 225.291 278.736 225.922 278.013C226.553 277.291 227.017 276.441 227.28 275.524C227.543 274.606 227.6 273.644 227.446 272.703C227.281 271.69 226.876 270.73 226.264 269.899C225.653 269.068 224.851 268.39 223.925 267.92C222.999 267.449 221.973 267.199 220.93 267.19C219.888 267.181 218.857 267.413 217.922 267.866L208.894 272.249L178.015 279.024L164.786 265.718L157.187 278.031L175.038 291.6L211.242 280.218Z" fill="#FFB8B8"/>
<path d="M209.447 377.529L198.168 379.663C190.463 355.77 182.116 333.143 182.117 315.643C171.213 327.581 157.693 334.411 141.771 336.556L143.507 310.094L156.521 303.266L176.44 294.221C178.184 293.429 180.065 292.971 181.983 292.872C185.712 292.679 189.382 293.85 192.286 296.159C195.191 298.469 197.124 301.753 197.714 305.381L209.447 377.529Z" fill="#2F2E41"/>
<path d="M155.437 333.355L150.941 336.717C149.008 338.162 146.724 339.085 144.317 339.394C141.909 339.702 139.461 339.386 137.216 338.477C124.34 328.981 115.192 331.783 106.901 346.115C96.9563 335.073 94.5028 319.125 103.378 302.625L152.617 303.692L162.595 300.705L155.437 333.355Z" fill="#2F2E41"/>
<path d="M139.038 382.805C136.217 383.659 133.18 383.509 130.46 382.382C127.739 381.254 125.509 379.221 124.159 376.638C119.734 372.803 116.001 367.313 112.762 360.637C110.439 355.74 108.444 350.699 106.79 345.545C104.549 338.736 108.296 331.298 115.269 329.261C115.477 329.2 115.687 329.143 115.899 329.089C125.209 326.738 134.769 332.02 137.951 340.943L147.204 366.888C147.751 368.421 147.985 370.044 147.894 371.666C147.803 373.288 147.388 374.876 146.673 376.34C145.958 377.804 144.957 379.116 143.726 380.199C142.496 381.282 141.061 382.117 139.503 382.655C139.349 382.708 139.194 382.758 139.038 382.805Z" fill="#2F2E41"/>
<path opacity="0.2" d="M111.187 357.683C111.187 357.683 122.032 369.633 124.201 376.462L111.187 357.683Z" fill="black"/>
<path d="M69.1236 301.284L65.4939 310C65.1266 310.882 64.9593 311.832 65.0036 312.784C65.0478 313.736 65.3027 314.667 65.7503 315.512C66.198 316.358 66.8276 317.096 67.5954 317.678C68.3631 318.259 69.2505 318.668 70.1956 318.878C71.2128 319.103 72.2695 319.09 73.2807 318.84C74.2918 318.59 75.2292 318.11 76.0174 317.438C76.8055 316.767 77.4225 315.923 77.8186 314.974C78.2147 314.025 78.3788 312.998 78.2978 311.975L77.5157 302.1L82.5943 271.378L100.067 264.238L91.2698 252.722L71.8327 263.987L69.1236 301.284Z" fill="#FFB8B8"/>
<path d="M155.87 302.625C143.406 323.224 118.557 331.2 97.2741 315.07C101.018 302.968 113.105 269.521 105.297 268.24C88.7168 275.081 88.6928 259.02 85.5916 250.982L123.334 237.324L143.723 242.873L147.903 244.332C150.623 245.282 152.982 247.028 154.664 249.336C156.345 251.644 157.267 254.403 157.307 257.243C148.742 269.416 142.401 282.402 155.87 302.625Z" fill="#7879F1"/>
<path d="M160.642 285.98L145.676 273.816L150.664 245.434L171.054 266.774L160.642 285.98Z" fill="#7879F1"/>
<path d="M408.988 91.0003H406.849V33.3599C406.849 24.5123 403.276 16.0271 396.917 9.77088C390.558 3.51469 381.934 0 372.941 0H248.813C239.82 0 231.195 3.51469 224.836 9.77088C218.477 16.0271 214.905 24.5123 214.905 33.3599V349.581C214.905 358.428 218.477 366.914 224.836 373.17C231.195 379.426 239.82 382.941 248.813 382.941H372.94C381.933 382.941 390.558 379.426 396.917 373.17C403.276 366.914 406.848 358.428 406.848 349.581V132.03H408.988L408.988 91.0003Z" fill="#3F3D56"/>
<path d="M374.309 8.67824H358.106C358.851 10.4756 359.136 12.4258 358.935 14.3569C358.734 16.2881 358.053 18.1409 356.952 19.7522C355.852 21.3634 354.365 22.6836 352.624 23.5964C350.882 24.5093 348.94 24.9867 346.966 24.9867H275.856C273.883 24.9865 271.94 24.509 270.199 23.5962C268.458 22.6834 266.972 21.3634 265.871 19.7524C264.771 18.1414 264.09 16.2888 263.888 14.3579C263.687 12.427 263.972 10.4771 264.717 8.67982H249.581C242.865 8.67982 236.424 11.3046 231.675 15.9768C226.926 20.6491 224.258 26.9859 224.258 33.5934V349.349C224.258 355.956 226.926 362.293 231.675 366.965C236.424 371.637 242.865 374.262 249.581 374.262H374.304C381.02 374.262 387.461 371.637 392.21 366.965C396.959 362.293 399.627 355.956 399.627 349.349V349.349V33.5918C399.627 26.9843 396.959 20.6475 392.21 15.9753C387.461 11.303 381.02 8.67822 374.304 8.67822H374.309L374.309 8.67824Z" fill="white"/>
<path d="M312.159 356.617C319.839 356.617 326.065 350.492 326.065 342.936C326.065 335.38 319.839 329.255 312.159 329.255C304.479 329.255 298.253 335.38 298.253 342.936C298.253 350.492 304.479 356.617 312.159 356.617Z" fill="#E6E6E6"/>
<path d="M255.747 216.417C254.432 216.417 253.363 217.618 253.363 219.094C253.363 220.57 254.432 221.771 255.747 221.771H368.138C369.452 221.771 370.522 220.57 370.522 219.094C370.522 217.618 369.452 216.417 368.138 216.417H255.747Z" fill="#E6E6E6"/>
<path d="M255.747 279.559C254.432 279.559 253.363 280.76 253.363 282.236C253.363 283.712 254.432 284.913 255.747 284.913H368.138C369.452 284.913 370.522 283.712 370.522 282.236C370.522 280.76 369.452 279.559 368.138 279.559H255.747Z" fill="#E6E6E6"/>
<path d="M255.747 232.48C254.432 232.48 253.363 233.681 253.363 235.157C253.363 236.633 254.432 237.834 255.747 237.834H304.109C305.423 237.834 306.493 236.633 306.493 235.157C306.493 233.681 305.423 232.48 304.109 232.48H255.747Z" fill="#E6E6E6"/>
<path d="M255.747 247.791C254.432 247.791 253.363 248.992 253.363 250.468C253.363 251.944 254.432 253.145 255.747 253.145H368.138C369.452 253.145 370.522 251.944 370.522 250.468C370.522 248.992 369.452 247.791 368.138 247.791H255.747Z" fill="#E6E6E6"/>
<path d="M255.747 263.854C254.432 263.854 253.363 265.055 253.363 266.531C253.363 268.007 254.432 269.208 255.747 269.208H304.109C305.423 269.208 306.493 268.007 306.493 266.531C306.493 265.055 305.423 263.854 304.109 263.854H255.747Z" fill="#E6E6E6"/>
<path d="M276.964 94.5164H346.927C347.7 94.5173 348.441 94.8197 348.988 95.3574C349.534 95.895 349.842 96.624 349.843 97.3843V169.07C349.842 169.83 349.534 170.559 348.988 171.097C348.441 171.634 347.7 171.937 346.927 171.938H276.964C276.191 171.937 275.45 171.634 274.904 171.097C274.357 170.559 274.05 169.83 274.049 169.07V97.3843C274.05 96.624 274.357 95.895 274.904 95.3574C275.45 94.8197 276.191 94.5173 276.964 94.5164Z" fill="#333333"/>
<path d="M332.02 157.155C332.28 157.155 332.537 157.105 332.778 157.008C333.018 156.91 333.237 156.767 333.421 156.586C333.605 156.405 333.752 156.191 333.851 155.954C333.951 155.718 334.003 155.465 334.003 155.209C334.003 154.953 333.952 154.699 333.852 154.463C333.753 154.226 333.607 154.011 333.423 153.83C333.239 153.649 333.02 153.506 332.78 153.408C332.539 153.31 332.282 153.26 332.021 153.261H291.872C291.612 153.26 291.354 153.31 291.113 153.407C290.873 153.505 290.654 153.648 290.47 153.829C290.286 154.01 290.14 154.225 290.04 154.461C289.94 154.697 289.889 154.951 289.889 155.207C289.889 155.463 289.94 155.716 290.039 155.953C290.139 156.189 290.285 156.404 290.469 156.585C290.653 156.766 290.871 156.909 291.112 157.007C291.352 157.105 291.61 157.155 291.87 157.155H332.02Z" fill="white"/>
<path d="M332.02 145.683C332.544 145.683 333.048 145.478 333.419 145.112C333.79 144.747 333.999 144.252 333.999 143.736C333.999 143.219 333.79 142.724 333.419 142.359C333.048 141.994 332.544 141.789 332.02 141.789H291.872C291.347 141.788 290.844 141.993 290.472 142.358C290.101 142.723 289.892 143.218 289.892 143.735C289.892 144.251 290.1 144.746 290.471 145.112C290.842 145.477 291.345 145.683 291.87 145.683H332.02Z" fill="white"/>
<path d="M311.946 109.299C314.409 109.299 316.818 110.018 318.867 111.365C320.915 112.711 322.512 114.625 323.455 116.865C324.398 119.104 324.645 121.569 324.164 123.946C323.683 126.324 322.497 128.507 320.755 130.222C319.012 131.936 316.793 133.103 314.376 133.576C311.959 134.049 309.455 133.806 307.178 132.878C304.902 131.951 302.956 130.38 301.588 128.364C300.219 126.349 299.488 123.979 299.488 121.555C299.492 118.306 300.805 115.191 303.141 112.893C305.476 110.595 308.643 109.303 311.946 109.299Z" fill="white"/>
<path d="M152.996 233.609H116.012C115.252 233.608 114.522 233.31 113.984 232.781C113.447 232.252 113.144 231.534 113.143 230.786V215.102C113.143 209.529 115.394 204.183 119.4 200.242C123.406 196.301 128.839 194.087 134.504 194.087C140.17 194.087 145.603 196.301 149.609 200.242C153.615 204.183 155.865 209.529 155.865 215.102V230.786C155.865 231.534 155.562 232.252 155.024 232.781C154.486 233.31 153.757 233.608 152.996 233.609Z" fill="#2F2E41"/>
<path d="M152.33 224.646C156.478 217.18 153.689 207.818 146.1 203.736C138.51 199.654 128.994 202.399 124.846 209.865C120.697 217.332 123.486 226.694 131.076 230.776C138.665 234.857 148.181 232.113 152.33 224.646Z" fill="#FFB6B6"/>
<path d="M160.919 216.671H138.305L138.073 213.476L136.913 216.671H133.431L132.971 210.34L130.673 216.671H123.936V216.357C123.941 211.949 125.722 207.724 128.89 204.607C132.058 201.491 136.353 199.738 140.833 199.733H144.021C148.501 199.738 152.796 201.491 155.964 204.607C159.132 207.724 160.914 211.949 160.919 216.357V216.671Z" fill="#2F2E41"/>
<path d="M138.119 236.536C137.949 236.536 137.779 236.521 137.612 236.492L121.052 233.618V206.693H139.281L138.83 207.21C132.551 214.415 137.281 226.097 140.66 232.419C140.909 232.882 141.02 233.405 140.98 233.928C140.94 234.45 140.751 234.951 140.435 235.372C140.17 235.733 139.822 236.026 139.42 236.228C139.017 236.431 138.571 236.536 138.119 236.536Z" fill="#2F2E41"/>
<path d="M193.252 369.471L213.683 369.47H213.683C217.136 369.47 220.448 370.82 222.89 373.222C225.331 375.624 226.703 378.882 226.703 382.279V382.696L193.253 382.697L193.252 369.471Z" fill="#2F2E41"/>
<path d="M475.465 384H0.534831C0.392985 384 0.256948 383.945 0.156648 383.846C0.0563477 383.747 0 383.613 0 383.474C0 383.334 0.0563477 383.2 0.156648 383.102C0.256948 383.003 0.392985 382.948 0.534831 382.948H475.465C475.607 382.948 475.743 383.003 475.843 383.102C475.944 383.2 476 383.334 476 383.474C476 383.613 475.944 383.747 475.843 383.846C475.743 383.945 475.607 384 475.465 384Z" fill="#CACACA"/>
</svg>
